<?xml version="1.0" encoding="UTF-8"?>
<svg id="Layer_2" data-name="Layer 2" xmlns="http://www.w3.org/2000/svg" viewBox="0 0 256 256">
  <defs>
    <style>
      .cls-1 {
        fill: none;
        stroke: #000;
        stroke-miterlimit: 10;
        stroke-width: 7px;
      }

      .cls-2 {
        fill: #ccccc8;
      }
    </style>
  </defs>
  <g id="Layer_2-2" data-name="Layer 2">
    <circle class="cls-2" cx="128" cy="128" r="128"/>
    <g>
      <path class="cls-1" d="m80.24,21.31c14.58-6.54,30.75-10.17,47.76-10.17,37.92,0,71.63,18.07,92.98,46.05"/>
      <path class="cls-1" d="m235.19,174.65c-18.01,41.33-59.23,70.22-107.19,70.22-64.55,0-116.87-52.33-116.87-116.87,0-9.16,1.06-18.09,3.05-26.65"/>
    </g>
    <path d="m123.58,152.61c-44.29-5.69-71.95-32.9-71.95-32.9,0,0,23,37.61,65.75,43.25,34.5,4.54,91.49,2.39,90.15-4.82-11.88-63.87-121.17-39.77-176.3-64.68l17.04,17.49c21.61,6.23,40.29,6.94,61.06,8.81,27.92,3.24,75.66,8.24,81.11,31.96.59,2.55-44.77,3.74-66.86.9h0Z"/>
    <circle cx="128" cy="128" r="12.8"/>
    <path d="m213.13,102.58c-29.24-14.68-67.63-26.77-112.2-43.46-29.11-10.9-49.17-22.1-57.57-27.13-.47.42-.95.83-1.42,1.26l28.57,38.18h-33.19l55.23,12.1-16.34-21.89v-.04h0c33.55,16.63,99.35,34.88,125.06,51.31,16.96,10.84,24.58,34.2,25.03,42.54,6.13-36.82,1.07-77.78,1.07-77.78,0,0-4.95,29.57-14.23,24.92Z"/>
  </g>
</svg>