<?xml version="1.0" encoding="utf-8"?>
<svg xmlns="http://www.w3.org/2000/svg" viewBox="0 0 256 256" fill="#fff">
<path d="M10,128v88h118h118v-88V40H128H10V128z M226.6,128v68.2H128H29.4V128V59.8H128h98.6V128z"/>
<path d="M67.2,112.2c-6.9,8.5-12.4,15.8-12.3,16.1c0.1,0.3,5.8,7.4,12.5,15.8c8.5,10.5,12.4,15.1,12.8,14.8c4.1-3.1,14.6-11.7,14.6-11.9c0-0.1-3.3-4.4-7.4-9.4c-4.1-5.1-7.4-9.4-7.4-9.6c0-0.2,2.8-3.8,6.1-7.9c3.3-4.1,6.7-8.4,7.6-9.4l1.4-1.8l-7.1-5.7c-4-3.2-7.5-5.9-7.7-6.1C79.9,96.8,75.5,101.8,67.2,112.2z"/>
<path d="M168.6,102.6c-4.1,3.3-7.5,6.1-7.5,6.4c0,0.2,3.3,4.4,7.2,9.3c4,4.9,7.3,9.2,7.4,9.5c0.1,0.3-3.1,4.7-7.1,9.8c-4.1,5.1-7.4,9.4-7.4,9.5c0,0.2,13.4,11.2,14.7,12c0.4,0.3,24.7-29.2,25.3-30.7c0.1-0.4-21.7-28.3-24.4-31.1C176.2,96.7,174.7,97.8,168.6,102.6z"/>
</svg>